<?xml version="1.0" ?><svg viewBox="0 0 64 64" xmlns="http://www.w3.org/2000/svg"><title/><g id="Galaxy"><path d="M43.7339,29.9492l-1.668-1.8037.0532-2.4551a1,1,0,0,0-.6655-.9638l-2.3149-.8213-1.0938-2.1992a1,1,0,0,0-1.0376-.545l-2.4311.35-1.9908-1.4384a1.0011,1.0011,0,0,0-1.1708,0l-1.9908,1.4384-2.4311-.35a1.0075,1.0075,0,0,0-1.0376.545l-1.0938,2.1992-2.3149.8213a1,1,0,0,0-.6655.9638l.0532,2.4551-1.668,1.8037a.9982.9982,0,0,0-.1411,1.1621l1.188,2.1494-.6392,2.3711a1,1,0,0,0,.4156,1.0957L23.14,38.0781l.5357,2.3975a1.0009,1.0009,0,0,0,.8769.7773l2.4439.2432,1.5888,1.873a.992.992,0,0,0,1.1377.28L32,42.73l2.2769.92a.987.987,0,0,0,.3745.0733.9987.9987,0,0,0,.7632-.3536l1.5888-1.873,2.4439-.2432a1.0009,1.0009,0,0,0,.8769-.7773l.5357-2.3975,2.0507-1.3506a1,1,0,0,0,.4156-1.0957l-.6392-2.3711,1.188-2.1494A.9982.9982,0,0,0,43.7339,29.9492Z" style="fill:#f7be16"/><circle cx="32" cy="31.9707" r="7" style="fill:#eef5b2"/><circle cx="51" cy="38" r="6" style="fill:#febf63"/><circle cx="14" cy="55" r="6" style="fill:#febf63"/><circle cx="16" cy="8" r="6" style="fill:#febf63"/><g style="opacity:0.15"><path d="M42.07,28.15l.05-2.46a.9908.9908,0,0,0-.67-.96l-2.31-.82-1.1-2.2a.9867.9867,0,0,0-1.03-.55l-2.43.35-1.99-1.44a1.022,1.022,0,0,0-1.18,0l-1.52,1.1c1.14,1.26,2.25,2.57,3.31,3.91a68.7037,68.7037,0,0,1,5.63,8.43q1.215,2.16,2.27,4.41l1.81-1.19a1.0126,1.0126,0,0,0,.42-1.1l-.64-2.37,1.19-2.15a1,1,0,0,0-.15-1.16Z" style="fill:#0f3460"/><path d="M49.3705,43.7692A5.9941,5.9941,0,0,0,52.99,32.3463l0-.0063c.01-.11.01-.22.01-.34A21.0231,21.0231,0,0,0,32,11a20.7861,20.7861,0,0,0-10.19,2.65c.57.45,1.12.91,1.67,1.38A18.7771,18.7771,0,0,1,32,13,19.0172,19.0172,0,0,1,51,32a5.9948,5.9948,0,0,0-3.45,10.9006A18.3181,18.3181,0,0,1,44.41,46.38c.23.69.43,1.4.63,2.1a20.2791,20.2791,0,0,0,4.33-4.71Z" style="fill:#0f3460"/><path d="M32,2A29.7609,29.7609,0,0,0,20.66,4.22,5.997,5.997,0,0,0,10.25,6.3a67.0079,67.0079,0,0,1,9.86,6.06A5.9694,5.9694,0,0,0,22,8a5.8177,5.8177,0,0,0-.35-2.01A27.5088,27.5088,0,0,1,32,4,27.9925,27.9925,0,0,1,46.65,55.85c.12.71.22,1.42.32,2.13A29.9886,29.9886,0,0,0,32,2Z" style="fill:#0f3460"/></g><path d="M32,24.9707a7,7,0,1,0,7,7A7.0081,7.0081,0,0,0,32,24.9707Zm0,12a5,5,0,1,1,5-5A5.0059,5.0059,0,0,1,32,36.9707Z" style="fill:#0f3460"/><path d="M42.0659,28.1455l.0532-2.4551a1,1,0,0,0-.6655-.9638l-2.3149-.8213-1.0938-2.1992a1,1,0,0,0-1.0376-.545l-2.4311.35-1.9908-1.4384a1.0011,1.0011,0,0,0-1.1708,0l-1.9908,1.4384-2.4311-.35a1.0075,1.0075,0,0,0-1.0376.545l-1.0938,2.1992-2.3149.8213a1,1,0,0,0-.6655.9638l.0532,2.4551-1.668,1.8037a.9982.9982,0,0,0-.1411,1.1621l1.188,2.1494-.6392,2.3711a1,1,0,0,0,.4156,1.0957L23.14,38.0781l.5357,2.3975a1.0009,1.0009,0,0,0,.8769.7773l2.4439.2432,1.5888,1.873a.992.992,0,0,0,1.1377.28L32,42.73l2.2769.92a.987.987,0,0,0,.3745.0733.9987.9987,0,0,0,.7632-.3536l1.5888-1.873,2.4439-.2432a1.0009,1.0009,0,0,0,.8769-.7773l.5357-2.3975,2.0507-1.3506a1,1,0,0,0,.4156-1.0957l-.6392-2.3711,1.188-2.1494a.9982.9982,0,0,0-.1411-1.1621Zm-1.415,5.2461.5561,2.0635-1.7846,1.1758a.9976.9976,0,0,0-.4263.6171L38.53,39.334l-2.127.2119a.9967.9967,0,0,0-.6635.3486l-1.3829,1.63-1.9814-.8008a.9972.9972,0,0,0-.75,0l-1.9814.8008-1.3829-1.63a.9967.9967,0,0,0-.6635-.3486L25.47,39.334l-.4663-2.086a.9976.9976,0,0,0-.4263-.6171L22.793,35.4551l.5561-2.0635a.9972.9972,0,0,0-.09-.7441l-1.0342-1.8711,1.4517-1.5694a.9985.9985,0,0,0,.2661-.7L23.896,26.37l2.0151-.7148a1.0017,1.0017,0,0,0,.5611-.4971l.9521-1.9141,2.1153.3038a.9919.9919,0,0,0,.7275-.18L32,22.1162l1.7329,1.252a1,1,0,0,0,.7275.18l2.1153-.3038.9521,1.9141a1.0017,1.0017,0,0,0,.5611.4971l2.0151.7148-.0464,2.1367a.9985.9985,0,0,0,.2661.7l1.4517,1.5694-1.0342,1.8711A.9972.9972,0,0,0,40.6509,33.3916Z" style="fill:#0f3460"/><path d="M32,2A29.6269,29.6269,0,0,0,20.6632,4.2323a5.9968,5.9968,0,0,0-9.9363,6.6282A29.9705,29.9705,0,0,0,9.1708,51.4541a5.9935,5.9935,0,0,0,9.4382,7.3815A29.9962,29.9962,0,1,0,32,2ZM16,4a4,4,0,1,1-4,4A4.0042,4.0042,0,0,1,16,4ZM14,59a4,4,0,1,1,4-4A4.0042,4.0042,0,0,1,14,59Zm18,1a27.9977,27.9977,0,0,1-12.3877-2.8973,5.9918,5.9918,0,0,0-9.0059-7.0458,27.9774,27.9774,0,0,1,1.37-37.6187,5.9866,5.9866,0,0,0,9.67-6.4485A27.6507,27.6507,0,0,1,32,4a28,28,0,0,1,0,56Z" style="fill:#0f3460"/><path d="M52.9905,32.3466c.0019-.1161.01-.229.01-.3466a21.0412,21.0412,0,1,0-3.6275,11.77,5.994,5.994,0,0,0,3.618-11.4231ZM32,51A19,19,0,1,1,51,32a5.9947,5.9947,0,0,0-3.45,10.9007A18.8425,18.8425,0,0,1,32,51Zm19-9a4,4,0,1,1,4-4A4.0042,4.0042,0,0,1,51,42Z" style="fill:#0f3460"/></g></svg>